REM DIRINDEX 1\2,1\3,1\4,1\5,1\6
REM DIRNAME folder01,folder02,folder03,folder04,folder05,folder06
TITLE ""
FILE "Disc2Track11.mp3" MP3
  TRACK 01 AUDIO
    TITLE "3:cjc030_02319"
    INDEX 01 00:00:00
  TRACK 02 AUDIO
    TITLE "0:"
    INDEX 01 00:00:72
  TRACK 03 AUDIO
    TITLE "4:cjc030_02320"
    INDEX 01 00:01:03
  TRACK 04 AUDIO
    TITLE "0:"
    INDEX 01 00:02:06
  TRACK 05 AUDIO
    TITLE "5:cjc030_02321"
    INDEX 01 00:02:12
  TRACK 06 AUDIO
    TITLE "0:"
    INDEX 01 00:03:25
  TRACK 07 AUDIO
    TITLE "6:cjc030_02322"
    INDEX 01 00:03:37
  TRACK 08 AUDIO
    TITLE "0:"
    INDEX 01 00:06:69
  TRACK 09 AUDIO
    TITLE "3:cjc030_02323"
    INDEX 01 00:07:45
  TRACK 10 AUDIO
    TITLE "0:"
    INDEX 01 00:08:62
  TRACK 11 AUDIO
    TITLE "4:cjc030_02324"
    INDEX 01 00:08:70
  TRACK 12 AUDIO
    TITLE "0:"
    INDEX 01 00:09:69
  TRACK 13 AUDIO
    TITLE "5:cjc030_02325"
    INDEX 01 00:10:00
  TRACK 14 AUDIO
    TITLE "0:"
    INDEX 01 00:11:15
  TRACK 15 AUDIO
    TITLE "3:cjc030_02326"
    INDEX 01 00:12:01
  TRACK 16 AUDIO
    TITLE "0:"
    INDEX 01 00:13:12
  TRACK 17 AUDIO
    TITLE "4:cjc030_02327"
    INDEX 01 00:13:18
  TRACK 18 AUDIO
    TITLE "0:"
    INDEX 01 00:14:25
  TRACK 19 AUDIO
    TITLE "5:cjc030_02328"
    INDEX 01 00:14:31
  TRACK 20 AUDIO
    TITLE "0:"
    INDEX 01 00:15:42
  TRACK 21 AUDIO
    TITLE "6:cjc030_02329"
    INDEX 01 00:15:56
  TRACK 22 AUDIO
    TITLE "0:"
    INDEX 01 00:19:40
  TRACK 23 AUDIO
    TITLE "3:cjc030_02330"
    INDEX 01 00:20:14
  TRACK 24 AUDIO
    TITLE "0:"
    INDEX 01 00:22:13
  TRACK 25 AUDIO
    TITLE "4:cjc030_02331"
    INDEX 01 00:22:19
  TRACK 26 AUDIO
    TITLE "0:"
    INDEX 01 00:25:11
  TRACK 27 AUDIO
    TITLE "5:cjc030_02332"
    INDEX 01 00:25:19
  TRACK 28 AUDIO
    TITLE "0:"
    INDEX 01 00:27:16
  TRACK 29 AUDIO
    TITLE "6:cjc030_02333"
    INDEX 01 00:27:30
  TRACK 30 AUDIO
    TITLE "0:"
    INDEX 01 00:29:46
  TRACK 31 AUDIO
    TITLE "3:cjc030_02334"
    INDEX 01 00:30:20
  TRACK 32 AUDIO
    TITLE "0:"
    INDEX 01 00:31:31
  TRACK 33 AUDIO
    TITLE "4:cjc030_02335"
    INDEX 01 00:31:37
  TRACK 34 AUDIO
    TITLE "0:"
    INDEX 01 00:32:35
  TRACK 35 AUDIO
    TITLE "5:cjc030_02336"
    INDEX 01 00:32:43
  TRACK 36 AUDIO
    TITLE "0:"
    INDEX 01 00:33:52
  TRACK 37 AUDIO
    TITLE "3:cjc030_02337"
    INDEX 01 00:34:36
  TRACK 38 AUDIO
    TITLE "0:"
    INDEX 01 00:35:53
  TRACK 39 AUDIO
    TITLE "4:cjc030_02338"
    INDEX 01 00:35:63
  TRACK 40 AUDIO
    TITLE "0:"
    INDEX 01 00:37:07
  TRACK 41 AUDIO
    TITLE "5:cjc030_02339"
    INDEX 01 00:37:14
  TRACK 42 AUDIO
    TITLE "0:"
    INDEX 01 00:38:31
  TRACK 43 AUDIO
    TITLE "6:cjc030_02340"
    INDEX 01 00:38:43
  TRACK 44 AUDIO
    TITLE "0:"
    INDEX 01 00:44:60
  TRACK 45 AUDIO
    TITLE "3:cjc030_02341"
    INDEX 01 00:45:33
  TRACK 46 AUDIO
    TITLE "0:"
    INDEX 01 00:46:53
  TRACK 47 AUDIO
    TITLE "4:cjc030_02342"
    INDEX 01 00:46:60
  TRACK 48 AUDIO
    TITLE "0:"
    INDEX 01 00:49:72
  TRACK 49 AUDIO
    TITLE "5:cjc030_02343"
    INDEX 01 00:50:05
  TRACK 50 AUDIO
    TITLE "0:"
    INDEX 01 00:51:24
  TRACK 51 AUDIO
    TITLE "3:cjc030_02344"
    INDEX 01 00:52:04
  TRACK 52 AUDIO
    TITLE "0:"
    INDEX 01 00:53:29
  TRACK 53 AUDIO
    TITLE "4:cjc030_02345"
    INDEX 01 00:53:37
  TRACK 54 AUDIO
    TITLE "0:"
    INDEX 01 00:56:51
  TRACK 55 AUDIO
    TITLE "5:cjc030_02346"
    INDEX 01 00:56:61
  TRACK 56 AUDIO
    TITLE "0:"
    INDEX 01 00:58:13
  TRACK 57 AUDIO
    TITLE "3:cjc030_02347"
    INDEX 01 00:58:69
  TRACK 58 AUDIO
    TITLE "0:"
    INDEX 01 01:00:04
  TRACK 59 AUDIO
    TITLE "4:cjc030_02348"
    INDEX 01 01:00:13
  TRACK 60 AUDIO
    TITLE "0:"
    INDEX 01 01:01:31
  TRACK 61 AUDIO
    TITLE "5:cjc030_02349"
    INDEX 01 01:01:38
  TRACK 62 AUDIO
    TITLE "0:"
    INDEX 01 01:02:48
  TRACK 63 AUDIO
    TITLE "6:cjc030_02350"
    INDEX 01 01:02:59
  TRACK 64 AUDIO
    TITLE "0:"
    INDEX 01 01:08:42
  TRACK 65 AUDIO
    TITLE "3:cjc030_02351"
    INDEX 01 01:09:16
  TRACK 66 AUDIO
    TITLE "0:"
    INDEX 01 01:10:35
  TRACK 67 AUDIO
    TITLE "4:cjc030_02352"
    INDEX 01 01:10:43
  TRACK 68 AUDIO
    TITLE "0:"
    INDEX 01 01:11:29
  TRACK 69 AUDIO
    TITLE "5:cjc030_02353"
    INDEX 01 01:11:37
  TRACK 70 AUDIO
    TITLE "0:"
    INDEX 01 01:12:54
